<?xml version="1.0" encoding="UTF-8"?>
<svg version="1.1" xmlns="http://www.w3.org/2000/svg" width="512" height="512">
<path d="M0 0 C3.2144876 4.01427916 3.42649636 7.70550532 3.37752342 12.6603241 C3.38188374 13.42774024 3.38624407 14.19515639 3.39073652 14.98582757 C3.40171587 17.56649511 3.39125841 20.14663096 3.38095093 22.72729492 C3.38440643 24.59245929 3.38917027 26.45762162 3.39513266 28.32277966 C3.40768704 33.45539654 3.40145211 38.58784665 3.39217401 43.72046423 C3.385402 49.25291432 3.39585555 54.7853352 3.40411377 60.31777954 C3.41747308 71.15871585 3.41456358 81.99958995 3.40587585 92.84052873 C3.39910835 101.64901125 3.39817853 110.45747631 3.4014473 119.26596069 C3.401907 120.51830291 3.40236669 121.77064513 3.40284032 123.06093711 C3.40379947 125.60482479 3.40477211 128.14871246 3.4057581 130.69260013 C3.41407427 153.8814093 3.40544131 177.07018591 3.38973031 200.25898759 C3.37549319 221.43341878 3.37676706 242.60779585 3.39111328 263.78222656 C3.40717269 287.56482864 3.4134944 311.3474045 3.40427649 335.13001347 C3.40332081 337.66468874 3.4023777 340.19936402 3.4014473 342.73403931 C3.40098447 343.98123865 3.40052164 345.22843799 3.40004479 346.51343125 C3.3974515 355.31416784 3.40183321 364.11488527 3.40888596 372.9156189 C3.41728855 383.63670534 3.41504697 394.35772587 3.39904372 405.07880473 C3.3911443 410.55176596 3.38809784 416.02461718 3.39799118 421.49757767 C3.406904 426.50372781 3.40206173 431.50966554 3.38605852 436.5157963 C3.38269621 438.3306611 3.38443715 440.14554369 3.39168589 441.96039712 C3.40076083 444.42041468 3.39150058 446.87969721 3.37752342 449.3396759 C3.38454692 450.05027574 3.39157042 450.76087557 3.39880675 451.49300873 C3.34913706 455.84364531 2.68873486 458.56008329 0 462 C-2.84422329 464.68312509 -4.66627282 465.38571342 -8.55180168 465.27640247 C-14.14826869 465.09993862 -19.63638408 464.39058227 -25.1711731 463.57756042 C-26.25213064 463.42450213 -27.33308819 463.27144384 -28.44680202 463.11374742 C-32.0464151 462.60228755 -35.64450542 462.08083143 -39.24267578 461.55932617 C-41.83204027 461.18923634 -44.4214896 460.81973967 -47.01101685 460.45079041 C-53.30045645 459.55344683 -59.58877522 458.64847501 -65.87670673 457.74063011 C-70.98857196 457.00269457 -76.1008073 456.26737671 -81.21331406 455.53389931 C-81.94234474 455.42930175 -82.67137543 455.32470419 -83.42249795 455.21693701 C-84.90372424 455.00442456 -86.38495105 454.79191577 -87.86617838 454.57941059 C-101.7374206 452.58900461 -115.60736426 450.58966637 -129.47690652 448.58745418 C-142.15695068 446.75722005 -154.83847819 444.93750796 -167.52076043 443.12285288 C-180.55793892 441.25733355 -193.59414005 439.38512454 -206.62929523 437.50551778 C-208.10430114 437.29285077 -209.57930855 437.08019413 -211.05431747 436.86754799 C-211.77996701 436.76293394 -212.50561655 436.65831988 -213.25325546 436.5505357 C-218.35770483 435.81508996 -223.46276535 435.08398795 -228.56808853 434.35463524 C-235.44266363 433.37242706 -242.31580911 432.38070115 -249.18809128 431.3825779 C-251.70954886 431.01785097 -254.2314547 430.65620754 -256.75382996 430.29788208 C-260.1980908 429.80809004 -263.64055293 429.30715209 -267.08279419 428.8033905 C-268.07988061 428.66427299 -269.07696703 428.52515548 -270.10426819 428.38182229 C-279.07763292 427.04609555 -286.76220877 424.91264063 -293 418 C-297.79153852 410.70025192 -297.56366306 402.97651271 -297.50120544 394.53233337 C-297.50510273 393.0700826 -297.51074659 391.60783562 -297.51797634 390.14559752 C-297.53268758 386.14508339 -297.52257578 382.14496462 -297.50823963 378.14446342 C-297.49710906 373.82334544 -297.50907928 369.50228198 -297.51808167 365.1811676 C-297.5320016 356.72336076 -297.52446733 348.2657034 -297.50940608 339.8079037 C-297.49253118 329.95601889 -297.49575809 320.10417117 -297.49950016 310.25227637 C-297.50537638 292.67328101 -297.49121609 275.09435733 -297.46655273 257.51538086 C-297.44262902 240.4616426 -297.43555021 223.40800008 -297.44604492 206.35424805 C-297.45745635 187.77759746 -297.45938169 169.20099113 -297.44494683 150.62434107 C-297.443421 148.64322794 -297.44190065 146.6621148 -297.44038582 144.68100166 C-297.439628 143.70628721 -297.43887019 142.73157277 -297.43808941 141.72732152 C-297.43334861 134.86157758 -297.43519655 127.99585342 -297.43945122 121.13010979 C-297.44437979 112.76279818 -297.43838487 104.39557705 -297.41855692 96.02828615 C-297.40869114 91.75995243 -297.40357212 87.49175643 -297.41144943 83.22341537 C-297.41851572 79.31454113 -297.41167958 75.40594455 -297.3938458 71.49710686 C-297.38980747 70.08473134 -297.39079087 68.67233045 -297.39736467 67.25996446 C-297.43518448 58.37233483 -297.22573289 51.01156989 -291.6875 43.6875 C-285.79759551 37.79759551 -279.13204839 37.14004652 -271.2101593 36.04069519 C-270.05920786 35.87260068 -268.90825642 35.70450617 -267.72242767 35.53131789 C-264.14955802 35.01155634 -260.57491105 34.50550296 -257 34 C-254.90828198 33.69659905 -252.81671871 33.39212873 -250.72533226 33.08645058 C-244.36471915 32.15966213 -238.00123025 31.25362747 -231.63745117 30.34887695 C-229.22794829 30.00521258 -226.818464 29.66141782 -224.40899658 29.31750488 C-218.62242604 28.49185978 -212.83567735 27.66747259 -207.04885187 26.8436164 C-200.29303944 25.88170227 -193.5374976 24.91789412 -186.78197733 23.95393064 C-174.73410664 22.23481134 -162.68608651 20.5167419 -150.63793945 18.79956055 C-149.92125343 18.69741335 -149.2045674 18.59526615 -148.46616361 18.49002358 C-143.37327946 17.76415627 -138.28039 17.03832628 -133.1875 16.3125 C-127.33308484 15.47813924 -121.47867306 14.64375478 -115.62426758 13.80932617 C-114.90211149 13.70639762 -114.1799554 13.60346908 -113.43591579 13.49742148 C-101.39916475 11.78179422 -89.36257055 10.0650689 -77.32608777 8.34756058 C-69.92355026 7.29133331 -62.5208723 6.23610031 -55.11800853 5.18216207 C-49.46460066 4.37722151 -43.81139542 3.57086536 -38.15826416 2.76398468 C-35.83994295 2.43333179 -33.5215525 2.10316395 -31.20308876 1.77351189 C-28.04436147 1.32432034 -24.8858838 0.87341255 -21.72746277 0.42207336 C-20.80647976 0.29153149 -19.88549674 0.16098962 -18.93660516 0.02649194 C-15.63599326 -0.44655358 -12.37761836 -0.91770593 -9.11859608 -1.62794209 C-5.65560622 -2.23609614 -3.20621529 -1.30623586 0 0 Z M-231 147 C-227.93105846 152.47033238 -227.93105846 152.47033238 -224.4765625 157.69921875 C-224.02039551 158.34028564 -223.56422852 158.98135254 -223.09423828 159.6418457 C-222.60938965 160.31691162 -222.12454102 160.99197754 -221.625 161.6875 C-220.5516556 163.19500805 -219.47875721 164.70283373 -218.40625 166.2109375 C-217.84808594 166.99436523 -217.28992188 167.77779297 -216.71484375 168.58496094 C-213.83095638 172.6463809 -210.97846315 176.72967448 -208.125 180.8125 C-206.94011732 182.50651962 -205.75522139 184.20052997 -204.5703125 185.89453125 C-203.98024414 186.73838379 -203.39017578 187.58223633 -202.78222656 188.45166016 C-200.43669761 191.80544525 -198.09001427 195.15841901 -195.74169922 198.51025391 C-194.58722945 200.16055987 -193.43518018 201.81256193 -192.28564453 203.46630859 C-189.22475737 207.86291869 -186.11756561 212.21596678 -182.9375 216.52734375 C-182.27878906 217.43291016 -181.62007812 218.33847656 -180.94140625 219.27148438 C-179.67238527 221.01415402 -178.38903281 222.74650053 -177.08984375 224.46679688 C-176.52394531 225.24990234 -175.95804688 226.03300781 -175.375 226.83984375 C-174.86710937 227.52425537 -174.35921875 228.20866699 -173.8359375 228.91381836 C-173 231 -173 231 -173.70605469 233.54101562 C-174.81733395 235.65286557 -175.93419099 237.57206525 -177.328125 239.50390625 C-177.7907373 240.15141846 -178.25334961 240.79893066 -178.72998047 241.46606445 C-179.23158691 242.15788818 -179.73319336 242.84971191 -180.25 243.5625 C-181.34164978 245.08818121 -182.43277438 246.6142383 -183.5234375 248.140625 C-184.09416992 248.93662109 -184.66490234 249.73261719 -185.25292969 250.55273438 C-188.15585267 254.61909827 -191.01438005 258.7163203 -193.875 262.8125 C-195.05981674 264.50656574 -196.24471317 266.20057574 -197.4296875 267.89453125 C-198.01975586 268.73838379 -198.60982422 269.58223633 -199.21777344 270.45166016 C-201.56323329 273.80534645 -203.91011126 277.15803857 -206.25732422 280.51049805 C-207.41299088 282.16142729 -208.56826857 283.81262888 -209.72314453 285.46411133 C-212.7811008 289.83613432 -215.84639285 294.20278394 -218.921875 298.5625 C-219.56253906 299.47257813 -220.20320313 300.38265625 -220.86328125 301.3203125 C-222.09285008 303.06665664 -223.32451948 304.81152427 -224.55859375 306.5546875 C-225.11160156 307.34101563 -225.66460937 308.12734375 -226.234375 308.9375 C-226.72131836 309.62714844 -227.20826172 310.31679688 -227.70996094 311.02734375 C-228.97541838 312.96241114 -229.9839888 314.92602321 -231 317 C-224.12022524 317.48577644 -217.24490509 317.81592922 -210.35180664 318.04370117 C-208.01386489 318.13868963 -205.67703571 318.26795968 -203.34301758 318.43334961 C-190.39761691 319.71378228 -190.39761691 319.71378228 -178.72769165 315.24499512 C-174.67394655 310.77152658 -171.86594068 305.68570565 -169.18338013 300.30764771 C-167.67330865 297.36293629 -165.84119355 294.74601505 -163.87890625 292.0859375 C-163.31623047 291.28542969 -162.75355469 290.48492187 -162.17382812 289.66015625 C-161.64208984 288.90605469 -161.11035156 288.15195312 -160.5625 287.375 C-159.43777497 285.77936933 -158.31406892 284.18301989 -157.19140625 282.5859375 C-156.66305176 281.83538086 -156.13469727 281.08482422 -155.59033203 280.31152344 C-153.40704392 277.13814736 -151.33486705 273.89510803 -149.27709961 270.63916016 C-148.85565674 270.0982373 -148.43421387 269.55731445 -148 269 C-147.34 269 -146.68 269 -146 269 C-144.80175781 270.42675781 -144.80175781 270.42675781 -143.453125 272.453125 C-142.94467041 273.20803223 -142.43621582 273.96293945 -141.91235352 274.74072266 C-141.36377686 275.56878418 -140.8152002 276.3968457 -140.25 277.25 C-139.07793463 278.99293561 -137.90471821 280.73509761 -136.73046875 282.4765625 C-136.11993652 283.38438477 -135.5094043 284.29220703 -134.88037109 285.22753906 C-131.26946775 290.55153522 -127.55248315 295.80142117 -123.84667969 301.05957031 C-123.30043945 301.83655273 -122.75419922 302.61353516 -122.19140625 303.4140625 C-121.71904541 304.0838916 -121.24668457 304.7537207 -120.76000977 305.44384766 C-119 308 -119 308 -117.87042236 310.25883484 C-115.2307272 315.16712095 -115.2307272 315.16712095 -110.53523254 317.78656006 C-107.4775517 318.04280079 -104.54207849 318.01290002 -101.4765625 317.87890625 C-100.37524994 317.86617172 -99.27393738 317.85343719 -98.13925171 317.84031677 C-94.63223193 317.7900556 -91.13044673 317.67716864 -87.625 317.5625 C-85.24356449 317.51734433 -82.8620476 317.47628166 -80.48046875 317.43945312 C-74.65186917 317.34038895 -68.82630844 317.18992902 -63 317 C-66.06894154 311.52966762 -66.06894154 311.52966762 -69.5234375 306.30078125 C-69.97960449 305.65971436 -70.43577148 305.01864746 -70.90576172 304.3581543 C-71.39061035 303.68308838 -71.87545898 303.00802246 -72.375 302.3125 C-73.4483444 300.80499195 -74.52124279 299.29716627 -75.59375 297.7890625 C-76.15191406 297.00563477 -76.71007812 296.22220703 -77.28515625 295.41503906 C-80.16904362 291.3536191 -83.02153685 287.27032552 -85.875 283.1875 C-87.05988268 281.49348038 -88.24477861 279.79947003 -89.4296875 278.10546875 C-90.01975586 277.26161621 -90.60982422 276.41776367 -91.21777344 275.54833984 C-93.56330239 272.19455475 -95.90998573 268.84158099 -98.25830078 265.48974609 C-99.41277055 263.83944013 -100.56481982 262.18743807 -101.71435547 260.53369141 C-104.77524263 256.13708131 -107.88243439 251.78403322 -111.0625 247.47265625 C-111.72121094 246.56708984 -112.37992187 245.66152344 -113.05859375 244.72851562 C-114.32761473 242.98584598 -115.61096719 241.25349947 -116.91015625 239.53320312 C-117.47605469 238.75009766 -118.04195313 237.96699219 -118.625 237.16015625 C-119.13289063 236.47574463 -119.64078125 235.79133301 -120.1640625 235.08618164 C-121 233 -121 233 -120.29394531 230.45898438 C-119.18266605 228.34713443 -118.06580901 226.42793475 -116.671875 224.49609375 C-116.2092627 223.84858154 -115.74665039 223.20106934 -115.27001953 222.53393555 C-114.51760986 221.49619995 -114.51760986 221.49619995 -113.75 220.4375 C-112.65835022 218.91181879 -111.56722562 217.3857617 -110.4765625 215.859375 C-109.90583008 215.06337891 -109.33509766 214.26738281 -108.74707031 213.44726562 C-105.84414733 209.38090173 -102.98561995 205.2836797 -100.125 201.1875 C-98.94018326 199.49343426 -97.75528683 197.79942426 -96.5703125 196.10546875 C-95.98024414 195.26161621 -95.39017578 194.41776367 -94.78222656 193.54833984 C-92.43676671 190.19465355 -90.08988874 186.84196143 -87.74267578 183.48950195 C-86.58700912 181.83857271 -85.43173143 180.18737112 -84.27685547 178.53588867 C-81.2188992 174.16386568 -78.15360715 169.79721606 -75.078125 165.4375 C-74.43746094 164.52742188 -73.79679688 163.61734375 -73.13671875 162.6796875 C-71.90714992 160.93334336 -70.67548052 159.18847573 -69.44140625 157.4453125 C-68.88839844 156.65898437 -68.33539063 155.87265625 -67.765625 155.0625 C-67.03520996 154.02802734 -67.03520996 154.02802734 -66.29003906 152.97265625 C-65.02458162 151.03758886 -64.0160112 149.07397679 -63 147 C-69.87977476 146.51422356 -76.75509491 146.18407078 -83.64819336 145.95629883 C-85.98613511 145.86131037 -88.32296429 145.73204032 -90.65698242 145.56665039 C-103.60238309 144.28621772 -103.60238309 144.28621772 -115.27230835 148.75500488 C-119.32605345 153.22847342 -122.13405932 158.31429435 -124.81661987 163.69235229 C-126.32669135 166.63706371 -128.15880645 169.25398495 -130.12109375 171.9140625 C-130.68376953 172.71457031 -131.24644531 173.51507813 -131.82617188 174.33984375 C-132.35791016 175.09394531 -132.88964844 175.84804687 -133.4375 176.625 C-134.56222503 178.22063067 -135.68593108 179.81698011 -136.80859375 181.4140625 C-137.60112549 182.53989746 -137.60112549 182.53989746 -138.40966797 183.68847656 C-140.59295608 186.86185264 -142.66513295 190.10489197 -144.72290039 193.36083984 C-145.14434326 193.9017627 -145.56578613 194.44268555 -146 195 C-146.66 195 -147.32 195 -148 195 C-149.19824219 193.57324219 -149.19824219 193.57324219 -150.546875 191.546875 C-151.05532959 190.79196777 -151.56378418 190.03706055 -152.08764648 189.25927734 C-152.63622314 188.43121582 -153.1847998 187.6031543 -153.75 186.75 C-154.92206537 185.00706439 -156.09528179 183.26490239 -157.26953125 181.5234375 C-158.18532959 180.1617041 -158.18532959 180.1617041 -159.11962891 178.77246094 C-162.73053225 173.44846478 -166.44751685 168.19857883 -170.15332031 162.94042969 C-170.97268066 161.77495605 -170.97268066 161.77495605 -171.80859375 160.5859375 C-172.28095459 159.9161084 -172.75331543 159.2462793 -173.23999023 158.55615234 C-175 156 -175 156 -176.12957764 153.74116516 C-178.7692728 148.83287905 -178.7692728 148.83287905 -183.46476746 146.21343994 C-186.5224483 145.95719921 -189.45792151 145.98709998 -192.5234375 146.12109375 C-193.62475006 146.13382828 -194.72606262 146.14656281 -195.86074829 146.15968323 C-199.36776807 146.2099444 -202.86955327 146.32283136 -206.375 146.4375 C-208.75643551 146.48265567 -211.1379524 146.52371834 -213.51953125 146.56054688 C-219.34813083 146.65961105 -225.17369156 146.81007098 -231 147 Z " fill="#1A9EFF" transform="translate(339,24)"/>
<path d="M0 0 C96.91111111 0 96.91111111 0 103.875 6.8125 C108.9165658 14.3748487 108.28674423 22.27781992 108.26069641 31.07530212 C108.26371879 32.5193241 108.26760871 33.96334449 108.27228898 35.40736204 C108.28256649 39.36668021 108.2803878 43.32590779 108.27610838 47.28523338 C108.27364074 51.55866018 108.28265577 55.83206519 108.29014587 60.10548401 C108.30289352 68.47395121 108.30468651 76.84238634 108.30234561 85.21086162 C108.30056248 92.01268968 108.302312 98.81450801 108.30657005 105.61633492 C108.30716524 106.58445314 108.30776043 107.55257136 108.30837366 108.5500265 C108.30958541 110.51675991 108.31079954 112.48349332 108.31201603 114.45022673 C108.32289169 132.89291207 108.32072887 151.33557912 108.31463119 169.77826548 C108.30946121 186.65007303 108.32071956 203.52182286 108.33972941 220.39361899 C108.3591009 237.71923483 108.36736507 255.04482334 108.36360615 272.37045008 C108.36169317 282.09683384 108.36419125 291.82316845 108.37832069 301.54954338 C108.39022663 309.82905779 108.39164817 318.1084928 108.37953053 326.38800829 C108.3736365 330.61178042 108.37255688 334.83540727 108.38453293 339.05916977 C108.39537343 342.92740294 108.39231033 346.7953692 108.37827124 350.66358978 C108.37561927 352.06122548 108.37800659 353.45888197 108.38600711 354.85649728 C108.43308006 363.69474114 108.17220718 370.98150164 102.75 378.3125 C78.21734126 402.28759831 34.30242971 384 0 384 C0 257.28 0 130.56 0 0 Z " fill="#4669FF" transform="translate(362,64)"/>
</svg>
